# xmcd
#
# Track frame offsets: 
#        150
#        15835
#        39640
#        56505
#        69730
#        108907
#        138107
#        167727
#        181645
#        211190
#
# Disc length: 3116 seconds
#
# Revision: 5
# Processed by: cddbd v1.5.2PL0 Copyright (c) Steve Scherf et al.
# Submitted via: ExactAudioCopyFreeDBPlugin 1.0
#
DISCID=780c2a0a
DTITLE=Grand Funk Railroad - On Time
DYEAR=1969
DGENRE=Rock
TTITLE0=Are You Ready
TTITLE1=Anybody's Answer
TTITLE2=Time Machine
TTITLE3=High On A Horse
TTITLE4=T.N.U.C.
TTITLE5=Into The Sun
TTITLE6=Heartbreaker
TTITLE7=Call Yourself A Man
TTITLE8=Can't Be Too Long
TTITLE9=Ups And Downs
EXTD=YEAR: 1969
EXTT0=
EXTT1=
EXTT2=
EXTT3=
EXTT4=
EXTT5=
EXTT6=
EXTT7=
EXTT8=
EXTT9=
PLAYORDER=
